# xmcd
#
# Track frame offsets:
#	183
#	15475
#	28598
#	44295
#	65633
#	79608
#	93123
#	114373
#	126188
#	150140
#	164598
#	176033
#	192745
#	208988
#	222008
#	235685
#
# Disc length: 3362 seconds
#
# Revision: 1
# Processed by: cddbd v1.5.1PL0 Copyright (c) Steve Scherf et al.
# Submitted via: EasyCDDAExtractor 6.5.7.1
#
DISCID=d00d2010
DTITLE=Various Artist - Galpão Gaúcho
DYEAR=1900
DGENRE=Gaúcha
TTITLE0=Os Farrapos - Feijão com Arroz
TTITLE1=Grupo Quero-Quero - Cantando por aí
TTITLE2=Os Mateadores - Bolicheiro de Vila
TTITLE3=Francisco Vargas - Dando a mão pra mulherada
TTITLE4=Os Bertussi - Na Forma
TTITLE5=João Kadella e Grupo Kanil - Passei o ferro na Véia
TTITLE6=Os Nativos - Retrato do joão Cuiudo
TTITLE7=Mano Lima - Saco de Gato
TTITLE8=Leonardo - Aos Desgarados do Pago
TTITLE9=Os Mirins - Vaneirinha da Paixão
TTITLE10=Invernada de Guapos - Sacudindo a Bombacha
TTITLE11=Os Maragatos - Chamarisco de Fandango
TTITLE12=Os Fronteiriços - Os Zóio da Véia
TTITLE13=Garotos do Fandango - Enchendo de Gaita
TTITLE14=Grupo Bailanta - Do Pampa ao Pantanal
TTITLE15=Os Quatro Ventos - Cheiro de Galpãp
EXTD=
EXTT0=
EXTT1=
EXTT2=
EXTT3=
EXTT4=
EXTT5=
EXTT6=
EXTT7=
EXTT8=
EXTT9=
EXTT10=
EXTT11=
EXTT12=
EXTT13=
EXTT14=
EXTT15=
PLAYORDER=
